<svg xmlns="http://www.w3.org/2000/svg" viewBox="0 0 32 32" role="img" aria-labelledby="title">
  <title id="title">CAPSTONE favicon</title>
  <rect width="32" height="32" rx="5" fill="#0C2939"/><g transform="translate(4 9.478) scale(.065217)"><path fill-rule="evenodd" d="M 88.993 31.004 C 84.414 33.756, 77.480 38.413, 73.584 41.351 C 69.688 44.290, 62.931 50.026, 58.568 54.097 C 54.206 58.169, 47.178 65.668, 42.951 70.761 C 38.725 75.855, 34.221 81.992, 32.944 84.399 L 30.623 88.775 32.316 91.360 C 33.248 92.782, 36.595 95.614, 39.755 97.654 C 42.915 99.694, 56.975 108.702, 71 117.672 L 96.500 133.982 99.502 133.991 L 102.505 134 110.310 126.067 C 114.604 121.703, 121.353 115.978, 125.308 113.345 C 129.264 110.711, 133.512 107.678, 134.750 106.604 C 135.988 105.530, 137 103.546, 137 102.196 C 137 98.951, 107.360 29.636, 105.097 27.588 C 104.132 26.715, 101.987 26, 100.331 26 C 98.492 26, 94.076 27.949, 88.993 31.004 M 263.154 27.750 C 262.003 28.725, 254.425 45.087, 246.044 64.696 C 237.770 84.054, 231 100.555, 231 101.365 C 231 102.174, 231.268 103.536, 231.596 104.390 C 231.924 105.244, 235.988 108.469, 240.628 111.556 C 245.268 114.644, 252.808 120.956, 257.385 125.585 L 265.706 134 268.510 134 C 271.363 134, 275.022 131.810, 315.765 105.711 L 336.030 92.730 336.619 90.381 C 337.008 88.832, 336.346 86.579, 334.675 83.766 C 330.430 76.617, 319.599 63.785, 310.701 55.362 C 306.061 50.970, 298.878 44.827, 294.738 41.712 C 290.598 38.596, 283.490 33.786, 278.941 31.023 C 274.367 28.246, 269.452 26, 267.946 26 C 266.447 26, 264.291 26.788, 263.154 27.750 M 21.129 109.385 C 19.703 110.176, 17.641 113.320, 15.954 117.274 C 11.693 127.262, 6.370 144.403, 4.074 155.527 C 2.942 161.012, 1.497 171.926, 0.863 179.781 L -0.291 194.061 2.029 196.531 L 4.349 199 41.674 199 L 79 199 81 197 C 82.390 195.610, 83 193.667, 83 190.631 C 83 183.739, 85.824 169.320, 89.074 159.619 L 92.053 150.729 90.517 148.385 C 89.672 147.096, 87.523 145.292, 85.741 144.375 C 83.958 143.458, 76.875 139.235, 70 134.990 C 34.461 113.048, 26.003 108.003, 24.808 108.035 C 24.088 108.055, 22.433 108.662, 21.129 109.385 M 330.877 114.955 C 324.620 118.780, 309.925 127.667, 298.223 134.705 C 283.366 143.639, 276.778 148.148, 276.390 149.649 C 276.084 150.831, 277.025 155.099, 278.480 159.133 C 279.935 163.168, 281.737 169.401, 282.484 172.984 C 283.231 176.568, 284.163 183.229, 284.554 187.786 L 285.265 196.072 287.355 197.536 L 289.445 199 326.548 199 L 363.651 199 365.826 196.686 L 368 194.371 368 189.646 C 368 182.374, 366.096 166.553, 363.919 155.727 C 362.837 150.351, 360.790 142.251, 359.369 137.727 C 357.948 133.202, 355.190 125.314, 353.240 120.197 L 349.695 110.894 346.897 109.447 C 345.358 108.651, 343.684 108, 343.177 108 C 342.669 108, 337.134 111.130, 330.877 114.955" fill="#FFFFFF"/><path fill-rule="evenodd" d="M 168 1.107 C 163.875 1.573, 157.125 2.662, 153 3.528 C 141.845 5.870, 126.347 10.939, 123.501 13.178 C 121.944 14.403, 121 16.157, 121 17.828 C 121 19.303, 126.205 33.333, 132.567 49.005 C 138.929 64.677, 145.780 81.718, 147.792 86.874 C 150.282 93.257, 152.133 96.559, 153.591 97.223 C 155.067 97.896, 158.621 97.702, 165.042 96.599 C 170.163 95.720, 178.694 95, 184 95 C 189.306 95, 197.835 95.719, 202.953 96.599 L 212.259 98.197 214.714 96.349 C 216.336 95.127, 219.018 89.923, 222.622 81 C 225.622 73.575, 232.559 56.675, 238.038 43.444 C 243.517 30.213, 248 18.686, 248 17.829 C 248 16.971, 247.113 15.142, 246.029 13.763 L 244.057 11.257 234.279 8.155 C 228.900 6.449, 221.496 4.364, 217.825 3.522 C 210.338 1.805, 190.625 -0.028, 181.500 0.146 C 178.200 0.208, 172.125 0.641, 168 1.107" fill="#E2AB33"/></g>
</svg>
